<mxfile host="app.diagrams.net" modified="2021-09-09T10:37:17.713Z" agent="5.0 (Windows NT 10.0; Win64; x64) AppleWebKit/537.36 (KHTML, like Gecko) Chrome/93.0.4577.63 Safari/537.36" etag="tuZgQshhHYRD-uHZVn57" version="15.1.2" type="github">
  <diagram id="C5RBs43oDa-KdzZeNtuy" name="Page-1">
    <mxGraphModel dx="865" dy="468" grid="1" gridSize="10" guides="1" tooltips="1" connect="1" arrows="1" fold="1" page="1" pageScale="1" pageWidth="827" pageHeight="1169" math="0" shadow="0">
      <root>
        <mxCell id="WIyWlLk6GJQsqaUBKTNV-0" />
        <mxCell id="WIyWlLk6GJQsqaUBKTNV-1" parent="WIyWlLk6GJQsqaUBKTNV-0" />
        <mxCell id="zkfFHV4jXpPFQw0GAbJ--6" value="Student" style="swimlane;fontStyle=0;align=center;verticalAlign=top;childLayout=stackLayout;horizontal=1;startSize=26;horizontalStack=0;resizeParent=1;resizeLast=0;collapsible=1;marginBottom=0;rounded=0;shadow=0;strokeWidth=1;" parent="WIyWlLk6GJQsqaUBKTNV-1" vertex="1">
          <mxGeometry x="120" y="360" width="160" height="138" as="geometry">
            <mxRectangle x="130" y="380" width="160" height="26" as="alternateBounds" />
          </mxGeometry>
        </mxCell>
        <mxCell id="zkfFHV4jXpPFQw0GAbJ--7" value="Student Number" style="text;align=left;verticalAlign=top;spacingLeft=4;spacingRight=4;overflow=hidden;rotatable=0;points=[[0,0.5],[1,0.5]];portConstraint=eastwest;" parent="zkfFHV4jXpPFQw0GAbJ--6" vertex="1">
          <mxGeometry y="26" width="160" height="26" as="geometry" />
        </mxCell>
        <mxCell id="zkfFHV4jXpPFQw0GAbJ--8" value="Average Mark" style="text;align=left;verticalAlign=top;spacingLeft=4;spacingRight=4;overflow=hidden;rotatable=0;points=[[0,0.5],[1,0.5]];portConstraint=eastwest;rounded=0;shadow=0;html=0;" parent="zkfFHV4jXpPFQw0GAbJ--6" vertex="1">
          <mxGeometry y="52" width="160" height="26" as="geometry" />
        </mxCell>
        <mxCell id="zkfFHV4jXpPFQw0GAbJ--9" value="" style="line;html=1;strokeWidth=1;align=left;verticalAlign=middle;spacingTop=-1;spacingLeft=3;spacingRight=3;rotatable=0;labelPosition=right;points=[];portConstraint=eastwest;" parent="zkfFHV4jXpPFQw0GAbJ--6" vertex="1">
          <mxGeometry y="78" width="160" height="8" as="geometry" />
        </mxCell>
        <mxCell id="zkfFHV4jXpPFQw0GAbJ--10" value="Is Eligible To Enroll" style="text;align=left;verticalAlign=top;spacingLeft=4;spacingRight=4;overflow=hidden;rotatable=0;points=[[0,0.5],[1,0.5]];portConstraint=eastwest;fontStyle=4" parent="zkfFHV4jXpPFQw0GAbJ--6" vertex="1">
          <mxGeometry y="86" width="160" height="26" as="geometry" />
        </mxCell>
        <mxCell id="zkfFHV4jXpPFQw0GAbJ--11" value="Get Seminars Taken" style="text;align=left;verticalAlign=top;spacingLeft=4;spacingRight=4;overflow=hidden;rotatable=0;points=[[0,0.5],[1,0.5]];portConstraint=eastwest;" parent="zkfFHV4jXpPFQw0GAbJ--6" vertex="1">
          <mxGeometry y="112" width="160" height="26" as="geometry" />
        </mxCell>
        <mxCell id="zkfFHV4jXpPFQw0GAbJ--12" value="" style="endArrow=block;endSize=10;endFill=0;shadow=0;strokeWidth=1;rounded=0;edgeStyle=elbowEdgeStyle;elbow=vertical;" parent="WIyWlLk6GJQsqaUBKTNV-1" source="zkfFHV4jXpPFQw0GAbJ--6" edge="1">
          <mxGeometry width="160" relative="1" as="geometry">
            <mxPoint x="200" y="203" as="sourcePoint" />
            <mxPoint x="280" y="228" as="targetPoint" />
          </mxGeometry>
        </mxCell>
        <mxCell id="zkfFHV4jXpPFQw0GAbJ--13" value="Professor" style="swimlane;fontStyle=0;align=center;verticalAlign=top;childLayout=stackLayout;horizontal=1;startSize=26;horizontalStack=0;resizeParent=1;resizeLast=0;collapsible=1;marginBottom=0;rounded=0;shadow=0;strokeWidth=1;" parent="WIyWlLk6GJQsqaUBKTNV-1" vertex="1">
          <mxGeometry x="330" y="360" width="160" height="70" as="geometry">
            <mxRectangle x="340" y="380" width="170" height="26" as="alternateBounds" />
          </mxGeometry>
        </mxCell>
        <mxCell id="zkfFHV4jXpPFQw0GAbJ--14" value="Salary" style="text;align=left;verticalAlign=top;spacingLeft=4;spacingRight=4;overflow=hidden;rotatable=0;points=[[0,0.5],[1,0.5]];portConstraint=eastwest;" parent="zkfFHV4jXpPFQw0GAbJ--13" vertex="1">
          <mxGeometry y="26" width="160" height="26" as="geometry" />
        </mxCell>
        <mxCell id="zkfFHV4jXpPFQw0GAbJ--15" value="" style="line;html=1;strokeWidth=1;align=left;verticalAlign=middle;spacingTop=-1;spacingLeft=3;spacingRight=3;rotatable=0;labelPosition=right;points=[];portConstraint=eastwest;" parent="zkfFHV4jXpPFQw0GAbJ--13" vertex="1">
          <mxGeometry y="52" width="160" height="8" as="geometry" />
        </mxCell>
        <mxCell id="zkfFHV4jXpPFQw0GAbJ--16" value="" style="endArrow=block;endSize=10;endFill=0;shadow=0;strokeWidth=1;rounded=0;edgeStyle=elbowEdgeStyle;elbow=vertical;" parent="WIyWlLk6GJQsqaUBKTNV-1" source="zkfFHV4jXpPFQw0GAbJ--13" edge="1">
          <mxGeometry width="160" relative="1" as="geometry">
            <mxPoint x="210" y="373" as="sourcePoint" />
            <mxPoint x="280" y="228" as="targetPoint" />
          </mxGeometry>
        </mxCell>
        <mxCell id="zkfFHV4jXpPFQw0GAbJ--17" value="Address" style="swimlane;fontStyle=0;align=center;verticalAlign=top;childLayout=stackLayout;horizontal=1;startSize=26;horizontalStack=0;resizeParent=1;resizeLast=0;collapsible=1;marginBottom=0;rounded=0;shadow=0;strokeWidth=1;" parent="WIyWlLk6GJQsqaUBKTNV-1" vertex="1">
          <mxGeometry x="530" y="340" width="160" height="216" as="geometry">
            <mxRectangle x="550" y="140" width="160" height="26" as="alternateBounds" />
          </mxGeometry>
        </mxCell>
        <mxCell id="zkfFHV4jXpPFQw0GAbJ--18" value="Street" style="text;align=left;verticalAlign=top;spacingLeft=4;spacingRight=4;overflow=hidden;rotatable=0;points=[[0,0.5],[1,0.5]];portConstraint=eastwest;" parent="zkfFHV4jXpPFQw0GAbJ--17" vertex="1">
          <mxGeometry y="26" width="160" height="26" as="geometry" />
        </mxCell>
        <mxCell id="zkfFHV4jXpPFQw0GAbJ--19" value="City" style="text;align=left;verticalAlign=top;spacingLeft=4;spacingRight=4;overflow=hidden;rotatable=0;points=[[0,0.5],[1,0.5]];portConstraint=eastwest;rounded=0;shadow=0;html=0;" parent="zkfFHV4jXpPFQw0GAbJ--17" vertex="1">
          <mxGeometry y="52" width="160" height="26" as="geometry" />
        </mxCell>
        <mxCell id="zkfFHV4jXpPFQw0GAbJ--20" value="State" style="text;align=left;verticalAlign=top;spacingLeft=4;spacingRight=4;overflow=hidden;rotatable=0;points=[[0,0.5],[1,0.5]];portConstraint=eastwest;rounded=0;shadow=0;html=0;" parent="zkfFHV4jXpPFQw0GAbJ--17" vertex="1">
          <mxGeometry y="78" width="160" height="26" as="geometry" />
        </mxCell>
        <mxCell id="zkfFHV4jXpPFQw0GAbJ--21" value="Postal Code" style="text;align=left;verticalAlign=top;spacingLeft=4;spacingRight=4;overflow=hidden;rotatable=0;points=[[0,0.5],[1,0.5]];portConstraint=eastwest;rounded=0;shadow=0;html=0;" parent="zkfFHV4jXpPFQw0GAbJ--17" vertex="1">
          <mxGeometry y="104" width="160" height="26" as="geometry" />
        </mxCell>
        <mxCell id="zkfFHV4jXpPFQw0GAbJ--22" value="Country" style="text;align=left;verticalAlign=top;spacingLeft=4;spacingRight=4;overflow=hidden;rotatable=0;points=[[0,0.5],[1,0.5]];portConstraint=eastwest;rounded=0;shadow=0;html=0;" parent="zkfFHV4jXpPFQw0GAbJ--17" vertex="1">
          <mxGeometry y="130" width="160" height="26" as="geometry" />
        </mxCell>
        <mxCell id="zkfFHV4jXpPFQw0GAbJ--23" value="" style="line;html=1;strokeWidth=1;align=left;verticalAlign=middle;spacingTop=-1;spacingLeft=3;spacingRight=3;rotatable=0;labelPosition=right;points=[];portConstraint=eastwest;" parent="zkfFHV4jXpPFQw0GAbJ--17" vertex="1">
          <mxGeometry y="156" width="160" height="8" as="geometry" />
        </mxCell>
        <mxCell id="zkfFHV4jXpPFQw0GAbJ--24" value="Validate" style="text;align=left;verticalAlign=top;spacingLeft=4;spacingRight=4;overflow=hidden;rotatable=0;points=[[0,0.5],[1,0.5]];portConstraint=eastwest;" parent="zkfFHV4jXpPFQw0GAbJ--17" vertex="1">
          <mxGeometry y="164" width="160" height="26" as="geometry" />
        </mxCell>
        <mxCell id="zkfFHV4jXpPFQw0GAbJ--25" value="Output As Label" style="text;align=left;verticalAlign=top;spacingLeft=4;spacingRight=4;overflow=hidden;rotatable=0;points=[[0,0.5],[1,0.5]];portConstraint=eastwest;" parent="zkfFHV4jXpPFQw0GAbJ--17" vertex="1">
          <mxGeometry y="190" width="160" height="26" as="geometry" />
        </mxCell>
        <mxCell id="fJcrdEHhsctrOGzdh0rk-19" value="Courses" style="shape=table;startSize=30;container=1;collapsible=0;childLayout=tableLayout;fontStyle=1;align=center;pointerEvents=1;" vertex="1" parent="WIyWlLk6GJQsqaUBKTNV-1">
          <mxGeometry x="40" y="10" width="240" height="254" as="geometry" />
        </mxCell>
        <mxCell id="fJcrdEHhsctrOGzdh0rk-20" value="" style="shape=partialRectangle;html=1;whiteSpace=wrap;collapsible=0;dropTarget=0;pointerEvents=0;fillColor=none;top=0;left=0;bottom=0;right=0;points=[[0,0.5],[1,0.5]];portConstraint=eastwest;strokeColor=none;" vertex="1" parent="fJcrdEHhsctrOGzdh0rk-19">
          <mxGeometry y="30" width="240" height="28" as="geometry" />
        </mxCell>
        <mxCell id="fJcrdEHhsctrOGzdh0rk-21" value="PK" style="shape=partialRectangle;html=1;whiteSpace=wrap;connectable=0;fillColor=none;top=0;left=0;bottom=0;right=0;overflow=hidden;pointerEvents=1;" vertex="1" parent="fJcrdEHhsctrOGzdh0rk-20">
          <mxGeometry width="79" height="28" as="geometry" />
        </mxCell>
        <mxCell id="fJcrdEHhsctrOGzdh0rk-22" value="id" style="shape=partialRectangle;html=1;whiteSpace=wrap;connectable=0;fillColor=none;top=0;left=0;bottom=0;right=0;overflow=hidden;pointerEvents=1;" vertex="1" parent="fJcrdEHhsctrOGzdh0rk-20">
          <mxGeometry x="79" width="71" height="28" as="geometry" />
        </mxCell>
        <mxCell id="fJcrdEHhsctrOGzdh0rk-23" value="SERIAL" style="shape=partialRectangle;html=1;whiteSpace=wrap;connectable=0;fillColor=none;top=0;left=0;bottom=0;right=0;overflow=hidden;pointerEvents=1;" vertex="1" parent="fJcrdEHhsctrOGzdh0rk-20">
          <mxGeometry x="150" width="90" height="28" as="geometry" />
        </mxCell>
        <mxCell id="fJcrdEHhsctrOGzdh0rk-24" value="" style="shape=partialRectangle;html=1;whiteSpace=wrap;collapsible=0;dropTarget=0;pointerEvents=0;fillColor=none;top=0;left=0;bottom=0;right=0;points=[[0,0.5],[1,0.5]];portConstraint=eastwest;connectable=1;strokeColor=none;" vertex="1" parent="fJcrdEHhsctrOGzdh0rk-19">
          <mxGeometry y="58" width="240" height="28" as="geometry" />
        </mxCell>
        <mxCell id="fJcrdEHhsctrOGzdh0rk-25" value="NN" style="shape=partialRectangle;html=1;whiteSpace=wrap;connectable=0;fillColor=none;top=0;left=0;bottom=0;right=0;overflow=hidden;pointerEvents=1;" vertex="1" parent="fJcrdEHhsctrOGzdh0rk-24">
          <mxGeometry width="79" height="28" as="geometry" />
        </mxCell>
        <mxCell id="fJcrdEHhsctrOGzdh0rk-26" value="name" style="shape=partialRectangle;html=1;whiteSpace=wrap;connectable=0;fillColor=none;top=0;left=0;bottom=0;right=0;overflow=hidden;pointerEvents=1;" vertex="1" parent="fJcrdEHhsctrOGzdh0rk-24">
          <mxGeometry x="79" width="71" height="28" as="geometry" />
        </mxCell>
        <mxCell id="fJcrdEHhsctrOGzdh0rk-27" value="VARCHAR(255)" style="shape=partialRectangle;html=1;whiteSpace=wrap;connectable=0;fillColor=none;top=0;left=0;bottom=0;right=0;overflow=hidden;pointerEvents=1;" vertex="1" parent="fJcrdEHhsctrOGzdh0rk-24">
          <mxGeometry x="150" width="90" height="28" as="geometry" />
        </mxCell>
        <mxCell id="fJcrdEHhsctrOGzdh0rk-28" value="" style="shape=partialRectangle;html=1;whiteSpace=wrap;collapsible=0;dropTarget=0;pointerEvents=0;fillColor=none;top=0;left=0;bottom=0;right=0;points=[[0,0.5],[1,0.5]];portConstraint=eastwest;" vertex="1" parent="fJcrdEHhsctrOGzdh0rk-19">
          <mxGeometry y="86" width="240" height="28" as="geometry" />
        </mxCell>
        <mxCell id="fJcrdEHhsctrOGzdh0rk-29" value="" style="shape=partialRectangle;html=1;whiteSpace=wrap;connectable=0;fillColor=none;top=0;left=0;bottom=0;right=0;overflow=hidden;pointerEvents=1;" vertex="1" parent="fJcrdEHhsctrOGzdh0rk-28">
          <mxGeometry width="79" height="28" as="geometry" />
        </mxCell>
        <mxCell id="fJcrdEHhsctrOGzdh0rk-30" value="rating" style="shape=partialRectangle;html=1;whiteSpace=wrap;connectable=0;fillColor=none;top=0;left=0;bottom=0;right=0;overflow=hidden;pointerEvents=1;strokeColor=#FFFFFF;" vertex="1" parent="fJcrdEHhsctrOGzdh0rk-28">
          <mxGeometry x="79" width="71" height="28" as="geometry" />
        </mxCell>
        <mxCell id="fJcrdEHhsctrOGzdh0rk-31" value="DECIMAL" style="shape=partialRectangle;html=1;whiteSpace=wrap;connectable=0;fillColor=none;top=0;left=0;bottom=0;right=0;overflow=hidden;pointerEvents=1;" vertex="1" parent="fJcrdEHhsctrOGzdh0rk-28">
          <mxGeometry x="150" width="90" height="28" as="geometry" />
        </mxCell>
        <mxCell id="fJcrdEHhsctrOGzdh0rk-32" style="shape=partialRectangle;html=1;whiteSpace=wrap;collapsible=0;dropTarget=0;pointerEvents=0;fillColor=none;top=0;left=0;bottom=0;right=0;points=[[0,0.5],[1,0.5]];portConstraint=eastwest;" vertex="1" parent="fJcrdEHhsctrOGzdh0rk-19">
          <mxGeometry y="114" width="240" height="28" as="geometry" />
        </mxCell>
        <mxCell id="fJcrdEHhsctrOGzdh0rk-33" style="shape=partialRectangle;html=1;whiteSpace=wrap;connectable=0;fillColor=none;top=0;left=0;bottom=0;right=0;overflow=hidden;pointerEvents=1;" vertex="1" parent="fJcrdEHhsctrOGzdh0rk-32">
          <mxGeometry width="79" height="28" as="geometry" />
        </mxCell>
        <mxCell id="fJcrdEHhsctrOGzdh0rk-34" value="description" style="shape=partialRectangle;html=1;whiteSpace=wrap;connectable=0;fillColor=none;top=0;left=0;bottom=0;right=0;overflow=hidden;pointerEvents=1;" vertex="1" parent="fJcrdEHhsctrOGzdh0rk-32">
          <mxGeometry x="79" width="71" height="28" as="geometry" />
        </mxCell>
        <mxCell id="fJcrdEHhsctrOGzdh0rk-35" value="TEXT" style="shape=partialRectangle;html=1;whiteSpace=wrap;connectable=0;fillColor=none;top=0;left=0;bottom=0;right=0;overflow=hidden;pointerEvents=1;" vertex="1" parent="fJcrdEHhsctrOGzdh0rk-32">
          <mxGeometry x="150" width="90" height="28" as="geometry" />
        </mxCell>
        <mxCell id="fJcrdEHhsctrOGzdh0rk-36" style="shape=partialRectangle;html=1;whiteSpace=wrap;collapsible=0;dropTarget=0;pointerEvents=0;fillColor=none;top=0;left=0;bottom=0;right=0;points=[[0,0.5],[1,0.5]];portConstraint=eastwest;" vertex="1" parent="fJcrdEHhsctrOGzdh0rk-19">
          <mxGeometry y="142" width="240" height="28" as="geometry" />
        </mxCell>
        <mxCell id="fJcrdEHhsctrOGzdh0rk-37" value="NN" style="shape=partialRectangle;html=1;whiteSpace=wrap;connectable=0;fillColor=none;top=0;left=0;bottom=0;right=0;overflow=hidden;pointerEvents=1;" vertex="1" parent="fJcrdEHhsctrOGzdh0rk-36">
          <mxGeometry width="79" height="28" as="geometry" />
        </mxCell>
        <mxCell id="fJcrdEHhsctrOGzdh0rk-38" value="category" style="shape=partialRectangle;html=1;whiteSpace=wrap;connectable=0;fillColor=none;top=0;left=0;bottom=0;right=0;overflow=hidden;pointerEvents=1;" vertex="1" parent="fJcrdEHhsctrOGzdh0rk-36">
          <mxGeometry x="79" width="71" height="28" as="geometry" />
        </mxCell>
        <mxCell id="fJcrdEHhsctrOGzdh0rk-39" value="VARCHAR(255)" style="shape=partialRectangle;html=1;whiteSpace=wrap;connectable=0;fillColor=none;top=0;left=0;bottom=0;right=0;overflow=hidden;pointerEvents=1;" vertex="1" parent="fJcrdEHhsctrOGzdh0rk-36">
          <mxGeometry x="150" width="90" height="28" as="geometry" />
        </mxCell>
        <mxCell id="fJcrdEHhsctrOGzdh0rk-40" style="shape=partialRectangle;html=1;whiteSpace=wrap;collapsible=0;dropTarget=0;pointerEvents=0;fillColor=none;top=0;left=0;bottom=0;right=0;points=[[0,0.5],[1,0.5]];portConstraint=eastwest;" vertex="1" parent="fJcrdEHhsctrOGzdh0rk-19">
          <mxGeometry y="170" width="240" height="28" as="geometry" />
        </mxCell>
        <mxCell id="fJcrdEHhsctrOGzdh0rk-41" style="shape=partialRectangle;html=1;whiteSpace=wrap;connectable=0;fillColor=none;top=0;left=0;bottom=0;right=0;overflow=hidden;pointerEvents=1;" vertex="1" parent="fJcrdEHhsctrOGzdh0rk-40">
          <mxGeometry width="79" height="28" as="geometry" />
        </mxCell>
        <mxCell id="fJcrdEHhsctrOGzdh0rk-42" value="subcategory" style="shape=partialRectangle;html=1;whiteSpace=wrap;connectable=0;fillColor=none;top=0;left=0;bottom=0;right=0;overflow=hidden;pointerEvents=1;" vertex="1" parent="fJcrdEHhsctrOGzdh0rk-40">
          <mxGeometry x="79" width="71" height="28" as="geometry" />
        </mxCell>
        <mxCell id="fJcrdEHhsctrOGzdh0rk-43" value="VARCHAR(255)" style="shape=partialRectangle;html=1;whiteSpace=wrap;connectable=0;fillColor=none;top=0;left=0;bottom=0;right=0;overflow=hidden;pointerEvents=1;" vertex="1" parent="fJcrdEHhsctrOGzdh0rk-40">
          <mxGeometry x="150" width="90" height="28" as="geometry" />
        </mxCell>
        <mxCell id="fJcrdEHhsctrOGzdh0rk-44" style="shape=partialRectangle;html=1;whiteSpace=wrap;collapsible=0;dropTarget=0;pointerEvents=0;fillColor=none;top=0;left=0;bottom=0;right=0;points=[[0,0.5],[1,0.5]];portConstraint=eastwest;" vertex="1" parent="fJcrdEHhsctrOGzdh0rk-19">
          <mxGeometry y="198" width="240" height="28" as="geometry" />
        </mxCell>
        <mxCell id="fJcrdEHhsctrOGzdh0rk-45" style="shape=partialRectangle;html=1;whiteSpace=wrap;connectable=0;fillColor=none;top=0;left=0;bottom=0;right=0;overflow=hidden;pointerEvents=1;" vertex="1" parent="fJcrdEHhsctrOGzdh0rk-44">
          <mxGeometry width="79" height="28" as="geometry" />
        </mxCell>
        <mxCell id="fJcrdEHhsctrOGzdh0rk-46" style="shape=partialRectangle;html=1;whiteSpace=wrap;connectable=0;fillColor=none;top=0;left=0;bottom=0;right=0;overflow=hidden;pointerEvents=1;" vertex="1" parent="fJcrdEHhsctrOGzdh0rk-44">
          <mxGeometry x="79" width="71" height="28" as="geometry" />
        </mxCell>
        <mxCell id="fJcrdEHhsctrOGzdh0rk-47" style="shape=partialRectangle;html=1;whiteSpace=wrap;connectable=0;fillColor=none;top=0;left=0;bottom=0;right=0;overflow=hidden;pointerEvents=1;" vertex="1" parent="fJcrdEHhsctrOGzdh0rk-44">
          <mxGeometry x="150" width="90" height="28" as="geometry" />
        </mxCell>
        <mxCell id="fJcrdEHhsctrOGzdh0rk-48" style="shape=partialRectangle;html=1;whiteSpace=wrap;collapsible=0;dropTarget=0;pointerEvents=0;fillColor=none;top=0;left=0;bottom=0;right=0;points=[[0,0.5],[1,0.5]];portConstraint=eastwest;" vertex="1" parent="fJcrdEHhsctrOGzdh0rk-19">
          <mxGeometry y="226" width="240" height="28" as="geometry" />
        </mxCell>
        <mxCell id="fJcrdEHhsctrOGzdh0rk-49" style="shape=partialRectangle;html=1;whiteSpace=wrap;connectable=0;fillColor=none;top=0;left=0;bottom=0;right=0;overflow=hidden;pointerEvents=1;" vertex="1" parent="fJcrdEHhsctrOGzdh0rk-48">
          <mxGeometry width="79" height="28" as="geometry" />
        </mxCell>
        <mxCell id="fJcrdEHhsctrOGzdh0rk-50" style="shape=partialRectangle;html=1;whiteSpace=wrap;connectable=0;fillColor=none;top=0;left=0;bottom=0;right=0;overflow=hidden;pointerEvents=1;" vertex="1" parent="fJcrdEHhsctrOGzdh0rk-48">
          <mxGeometry x="79" width="71" height="28" as="geometry" />
        </mxCell>
        <mxCell id="fJcrdEHhsctrOGzdh0rk-51" style="shape=partialRectangle;html=1;whiteSpace=wrap;connectable=0;fillColor=none;top=0;left=0;bottom=0;right=0;overflow=hidden;pointerEvents=1;" vertex="1" parent="fJcrdEHhsctrOGzdh0rk-48">
          <mxGeometry x="150" width="90" height="28" as="geometry" />
        </mxCell>
        <mxCell id="fJcrdEHhsctrOGzdh0rk-52" value="Subcategories" style="shape=table;startSize=30;container=1;collapsible=0;childLayout=tableLayout;fontStyle=1;align=center;pointerEvents=1;strokeColor=#000000;fillColor=#ffffff;" vertex="1" parent="WIyWlLk6GJQsqaUBKTNV-1">
          <mxGeometry x="440" y="40" width="240" height="150" as="geometry" />
        </mxCell>
        <mxCell id="fJcrdEHhsctrOGzdh0rk-53" value="" style="shape=partialRectangle;html=1;whiteSpace=wrap;collapsible=0;dropTarget=0;pointerEvents=0;fillColor=none;top=0;left=0;bottom=0;right=0;points=[[0,0.5],[1,0.5]];portConstraint=eastwest;" vertex="1" parent="fJcrdEHhsctrOGzdh0rk-52">
          <mxGeometry y="30" width="240" height="39" as="geometry" />
        </mxCell>
        <mxCell id="fJcrdEHhsctrOGzdh0rk-54" value="PK" style="shape=partialRectangle;html=1;whiteSpace=wrap;connectable=0;fillColor=none;top=0;left=0;bottom=0;right=0;overflow=hidden;pointerEvents=1;" vertex="1" parent="fJcrdEHhsctrOGzdh0rk-53">
          <mxGeometry width="80" height="39" as="geometry" />
        </mxCell>
        <mxCell id="fJcrdEHhsctrOGzdh0rk-55" value="id" style="shape=partialRectangle;html=1;whiteSpace=wrap;connectable=0;fillColor=none;top=0;left=0;bottom=0;right=0;overflow=hidden;pointerEvents=1;" vertex="1" parent="fJcrdEHhsctrOGzdh0rk-53">
          <mxGeometry x="80" width="80" height="39" as="geometry" />
        </mxCell>
        <mxCell id="fJcrdEHhsctrOGzdh0rk-56" value="SERIAL" style="shape=partialRectangle;html=1;whiteSpace=wrap;connectable=0;fillColor=none;top=0;left=0;bottom=0;right=0;overflow=hidden;pointerEvents=1;" vertex="1" parent="fJcrdEHhsctrOGzdh0rk-53">
          <mxGeometry x="160" width="80" height="39" as="geometry" />
        </mxCell>
        <mxCell id="fJcrdEHhsctrOGzdh0rk-57" value="" style="shape=partialRectangle;html=1;whiteSpace=wrap;collapsible=0;dropTarget=0;pointerEvents=0;fillColor=none;top=0;left=0;bottom=0;right=0;points=[[0,0.5],[1,0.5]];portConstraint=eastwest;" vertex="1" parent="fJcrdEHhsctrOGzdh0rk-52">
          <mxGeometry y="69" width="240" height="42" as="geometry" />
        </mxCell>
        <mxCell id="fJcrdEHhsctrOGzdh0rk-58" value="NN" style="shape=partialRectangle;html=1;whiteSpace=wrap;connectable=0;fillColor=none;top=0;left=0;bottom=0;right=0;overflow=hidden;pointerEvents=1;" vertex="1" parent="fJcrdEHhsctrOGzdh0rk-57">
          <mxGeometry width="80" height="42" as="geometry" />
        </mxCell>
        <mxCell id="fJcrdEHhsctrOGzdh0rk-59" value="name" style="shape=partialRectangle;html=1;whiteSpace=wrap;connectable=0;fillColor=none;top=0;left=0;bottom=0;right=0;overflow=hidden;pointerEvents=1;" vertex="1" parent="fJcrdEHhsctrOGzdh0rk-57">
          <mxGeometry x="80" width="80" height="42" as="geometry" />
        </mxCell>
        <mxCell id="fJcrdEHhsctrOGzdh0rk-60" value="VARCHAR(255)" style="shape=partialRectangle;html=1;whiteSpace=wrap;connectable=0;fillColor=none;top=0;left=0;bottom=0;right=0;overflow=hidden;pointerEvents=1;" vertex="1" parent="fJcrdEHhsctrOGzdh0rk-57">
          <mxGeometry x="160" width="80" height="42" as="geometry" />
        </mxCell>
        <mxCell id="fJcrdEHhsctrOGzdh0rk-61" value="" style="shape=partialRectangle;html=1;whiteSpace=wrap;collapsible=0;dropTarget=0;pointerEvents=0;fillColor=none;top=0;left=0;bottom=0;right=0;points=[[0,0.5],[1,0.5]];portConstraint=eastwest;" vertex="1" parent="fJcrdEHhsctrOGzdh0rk-52">
          <mxGeometry y="111" width="240" height="39" as="geometry" />
        </mxCell>
        <mxCell id="fJcrdEHhsctrOGzdh0rk-62" value="FK" style="shape=partialRectangle;html=1;whiteSpace=wrap;connectable=0;fillColor=none;top=0;left=0;bottom=0;right=0;overflow=hidden;pointerEvents=1;" vertex="1" parent="fJcrdEHhsctrOGzdh0rk-61">
          <mxGeometry width="80" height="39" as="geometry" />
        </mxCell>
        <mxCell id="fJcrdEHhsctrOGzdh0rk-63" value="category_id" style="shape=partialRectangle;html=1;whiteSpace=wrap;connectable=0;fillColor=none;top=0;left=0;bottom=0;right=0;overflow=hidden;pointerEvents=1;" vertex="1" parent="fJcrdEHhsctrOGzdh0rk-61">
          <mxGeometry x="80" width="80" height="39" as="geometry" />
        </mxCell>
        <mxCell id="fJcrdEHhsctrOGzdh0rk-64" value="INT" style="shape=partialRectangle;html=1;whiteSpace=wrap;connectable=0;fillColor=none;top=0;left=0;bottom=0;right=0;overflow=hidden;pointerEvents=1;" vertex="1" parent="fJcrdEHhsctrOGzdh0rk-61">
          <mxGeometry x="160" width="80" height="39" as="geometry" />
        </mxCell>
      </root>
    </mxGraphModel>
  </diagram>
</mxfile>
